<svg id="Layer_1" data-name="Layer 1" xmlns="http://www.w3.org/2000/svg" xmlns:xlink="http://www.w3.org/1999/xlink" viewBox="0 0 1205.39 454"><defs><style>.cls-1,.cls-2{stroke:#000;stroke-miterlimit:10;}.cls-1{stroke-width:5px;}.cls-2{fill:none;stroke-width:10px;}</style></defs><title>logo</title><image width="800" height="800" transform="scale(0.57)" xlink:href="ico_logo.png"/><path class="cls-1" d="M377,216.8h19.13L403.17,286c.86,9.66,1.43,16,1.85,27.12h.56c2-11.08,3.42-17.49,5.6-27l10.29-39.89h14.65L446,286.1c2.29,9.42,3.6,15.84,5.6,27h.7c.57-11.14.86-17.53,1.71-27l6.81-69.3H479L462.89,331.55H442.27l-10-43.39a207.87,207.87,0,0,1-3.91-21h-.52c-1.1,7-2.11,13.88-3.77,21l-10,43.39h-20.2Z" transform="translate(41 4)"/><path class="cls-1" d="M508.18,216.94h72.23v14.81H525.75v32.51H572v14.81H525.75v37.67h56.41v14.81h-74Z" transform="translate(41 4)"/><path class="cls-1" d="M619.14,216.94h34.05c23.52,0,40,7.52,40,28.07,0,11.08-6.38,21.43-20,24.93v.7c16.67,2.72,26.14,11.69,26.14,27.31,0,22.74-17.89,33.6-43.39,33.6H619.14Zm31.93,47.65c17.77,0,25-6,25-17.74,0-11.41-8.19-15.63-24.39-15.63H636.57v33.37Zm2.81,52.68c18.16,0,28.33-6.11,28.33-20.35,0-13.1-9.74-18.45-28.33-18.45H636.57v38.8Z" transform="translate(41 4)"/><path class="cls-1" d="M727.59,274.41c0-37.16,22.15-59.57,52.24-59.57A44.54,44.54,0,0,1,812,229l-9.9,11c-5.82-6-13-9.77-22.25-9.77-20.41,0-34.11,16.66-34.11,43.72,0,27.47,13.7,44.35,34.37,44.35,9.91,0,17.63-4.42,24.38-11.95L814.38,317c-9,10.63-20.76,16.66-36,16.66C750,333.65,727.59,312.12,727.59,274.41Z" transform="translate(41 4)"/><path class="cls-1" d="M1073.59,216.94h17.78v54.59h.56l44.37-54.59h19.87l-64.8,79.44v35.17h-17.78Zm33.72,53.43,10.53-13.77,42.27,74.95h-19.73Z" transform="translate(41 4)"/><path class="cls-2" d="M859.73,313.56l4.74,2.37s0,10.07,12.44,10.07,12.44-8.89,12.44-8.89l10.07-5.33s6.51,7.7,15.4-1.18,3-15.4,3-15.4l3-10.08s10.08.6,10.08-14.21-9.48-10.67-9.48-10.67l-4.15-9.47s8-6.82-1.18-16-16-3.55-16-3.55l-4.74-1.78-4.74-2.37s0-10.07-12.44-10.07-12.44,8.89-12.44,8.89l-10.07,5.33s-6.51-7.7-15.4,1.18-3,15.4-3,15.4l-3,10.07s-10.08-.59-10.08,14.22,9.48,10.67,9.48,10.67l4.15,9.47s-8,6.82,1.18,16,16,3.55,16,3.55Z" transform="translate(41 4)"/><circle class="cls-2" cx="918.5" cy="275.5" r="16.59"/><path class="cls-2" d="M983.73,313.56l4.74,2.37s0,10.07,12.44,10.07,12.44-8.89,12.44-8.89l10.07-5.33s6.51,7.7,15.4-1.18,3-15.4,3-15.4l3-10.08s10.08.6,10.08-14.21-9.48-10.67-9.48-10.67l-4.15-9.47s8-6.82-1.18-16-16-3.55-16-3.55l-4.74-1.78-4.74-2.37s0-10.07-12.44-10.07-12.44,8.89-12.44,8.89l-10.07,5.33s-6.51-7.7-15.4,1.18-3,15.4-3,15.4l-3,10.07s-10.08-.59-10.08,14.22,9.48,10.67,9.48,10.67l4.15,9.47s-8,6.82,1.18,16,16,3.55,16,3.55Z" transform="translate(41 4)"/><circle class="cls-2" cx="1042.5" cy="275.5" r="16.59"/></svg>