<svg id="Layer_1" data-name="Layer 1" xmlns="http://www.w3.org/2000/svg" viewBox="0 0 1417.32 708.66"><defs><style>.cls-1{fill:#3d1d10;}.cls-2{fill:#512f14;}.cls-3{fill:#f6f5f5;}.cls-4{fill:#9c734d;}.cls-5{fill:#846e5d;}.cls-6,.cls-7{fill:none;}.cls-6{stroke:#1d1d1b;stroke-width:20.64px;}.cls-6,.cls-7,.cls-8{stroke-miterlimit:10;}.cls-7{stroke:#b88d60;stroke-width:15.48px;}.cls-8{font-size:270.86px;fill:#582912;stroke:#fac38a;stroke-width:10.32px;font-family:LuckiestGuy-Regular, Luckiest Guy;}.cls-9{letter-spacing:-0.01em;}.cls-10{letter-spacing:0em;}.cls-11{letter-spacing:-0.01em;}</style></defs><title>초코바이로고</title><path class="cls-1" d="M1015.21,250.48c19,0,31.45-10.47,29.46,80.9s-25,347-352.5,347c-7.49,0-14.81-.15-22-.49a510.24,510.24,0,0,0,69.11-8.38c324-62.92,255.57-423,254.87-426.65C999.48,246.82,1006,250.48,1015.21,250.48Z"/><path class="cls-2" d="M879.34,242.74c28.1.59,59.59-2.66,95-10.78,3.53.72,5.47,1,5.47,1,4.62,1,8.82,5.6,14.42,9.81v0c.7,3.61,69.11,363.73-254.87,426.65,0,0-328.75,18.86-339.74-294.7S656,50.09,656,50.09C667.4,102.2,713.09,239.41,879.34,242.74Z"/><path class="cls-3" d="M943.19,224.32c13.88,4,24.94,6.4,31.11,7.64-35.37,8.12-66.86,11.37-95,10.78C718.4,221.77,674.55,31,674.55,31a258.52,258.52,0,0,1,34.1,4.72S745.2,238.23,943.16,224.32Z"/><path class="cls-4" d="M836.29,177.09c35.52,24.07,77.54,38.92,106.87,47.23C745.2,238.23,708.65,35.67,708.65,35.67c14.26,3.1,26.65,7.72,31.11,14.27C749.74,64.59,774.38,135.14,836.29,177.09Z"/><path class="cls-5" d="M399.58,374.79c11,313.56,339.74,294.7,339.74,294.7a510.24,510.24,0,0,1-69.11,8.38h-.07c-305.2-13.8-298.49-314.87-297.51-350,1-35.7,26.23-293.74,279.94-297.51A196.74,196.74,0,0,0,656,50.09S388.59,61.26,399.58,374.79Z"/><path class="cls-4" d="M674.55,31S718.4,221.77,879.34,242.74C713.09,239.41,667.4,102.2,656,50.09a196.74,196.74,0,0,1-3.46-19.73c1.88,0,3.76-.05,5.65-.05C662.71,30.31,668.33,30.51,674.55,31Z"/><path class="cls-6" d="M943.19,224.32c13.88,4,24.94,6.4,31.11,7.64,3.53.72,5.47,1,5.47,1,4.62,1,8.82,5.6,14.42,9.81"/><path class="cls-6" d="M670.14,677.87c-305.2-13.8-298.49-314.87-297.51-350,1-35.7,26.23-293.74,279.94-297.51,1.88,0,3.76-.05,5.65-.05,4.49,0,10.11.2,16.33.64a258.52,258.52,0,0,1,34.1,4.72c14.26,3.1,26.65,7.72,31.11,14.27,10,14.65,34.62,85.2,96.53,127.15,35.52,24.07,77.54,38.92,106.87,47.23"/><path class="cls-6" d="M994.19,242.84c5.29,4,11.79,7.64,21,7.64,19,0,31.45-10.47,29.46,80.9s-25,347-352.5,347c-7.49,0-14.81-.15-22-.49"/><path class="cls-6" d="M652.57,30.31v.05A196.74,196.74,0,0,0,656,50.09c11.37,52.11,57.06,189.32,223.31,192.65,28.1.59,59.59-2.66,95-10.78"/><path class="cls-6" d="M994.19,242.82v0c.7,3.61,69.11,363.73-254.87,426.65a510.24,510.24,0,0,1-69.11,8.38h-.07"/><line class="cls-6" x1="943.16" y1="224.32" x2="943.19" y2="224.32"/><path class="cls-7" d="M659.19,670.55s30,11.33,53.74-64,7.41-130.28,175.46-147.93c85.2-9,107.46-67.77,107.46-67.77"/><path class="cls-7" d="M466.94,585.29s22-40.69,76.72-66.49,73.72,1.53,192-83.6c84.59-60.9,38.2-202,54.2-217.13"/><path class="cls-7" d="M401.21,485.52s6.55-37.94,65.73-61.68S592.17,429,654.1,362.43,687.33,215,703.22,156.88"/><path class="cls-7" d="M546,60.24s-8.58,67.07,17.23,96.64,1.22,176-119.73,197.89C401.21,362.43,382,403.31,382,403.31"/><path class="cls-6" d="M979.76,233c9,2,16.47,17.48,35.45,17.48s31.45-10.49,29.46,80.88-25,347-352.5,347S371.63,363.82,372.63,327.87,399.21,30.3,658.22,30.3c22,0,71.56,5,81.55,19.63s34.62,85.22,96.53,127.16S979.76,233,979.76,233Z"/><path class="cls-6" d="M652.56,30.3S680.28,299.48,974.31,232"/><path class="cls-6" d="M994.19,242.82s80.31,412.59-324.05,435.05"/><text class="cls-8" transform="translate(8.3 488.9)">CHO<tspan class="cls-9" x="481.68" y="0">C</tspan><tspan class="cls-10" x="619.49" y="0">O-B</tspan><tspan class="cls-11" x="1056.73" y="0">U</tspan><tspan x="1224.03" y="0">Y</tspan></text></svg>